<svg xmlns="http://www.w3.org/2000/svg" viewBox="0 0 357.1 391.19"><defs><style>.cls-1{fill:#fff;}</style></defs><g id="Layer_2" data-name="Layer 2"><g id="Layer_1-2" data-name="Layer 1"><path class="cls-1" d="M166.16,207.6a.06.06,0,0,1,.11,0c.28,4.9.48,10.33.71,16.53.93,26.2,2.32,65.16,13.33,128.73a.07.07,0,0,1-.06.07c-1.48.18-3,.37-4.44.58a.07.07,0,0,1-.06,0A1222.29,1222.29,0,0,1,101.69,250.8a.05.05,0,0,1,0-.09C112.79,248.58,135.78,240.12,166.16,207.6ZM46,237.25c-3.11.83-5.79,1.56-8.28,2.11l-1.41.32A281.5,281.5,0,0,1,55.61,208c19.58-27.91,31.53-34,35.76-35.32A80.94,80.94,0,0,1,115,169.09c12.45,0,27.45,3.09,40.72,14.37a.06.06,0,0,1,0,.09c-17.5,20.07-41.8,41.67-59.71,43.95C69.78,230.84,56.05,234.54,46,237.25Zm270.28-33.86c-3.78,6.87-9.91,17.41-17,29.62-21.12,36.33-52.24,89.86-65,121.25a.05.05,0,0,1-.06,0c-1.63-.17-3.22-.29-4.75-.39a.06.06,0,0,1-.06-.06c.61-37.69,3.38-172.58,12.49-214C255.48,78,271.89,48.91,277.1,42c4.25-5.62,9.39-9.89,11.67-9.39,1.07.24,4.36,6,9.45,16.41,13,26.65,35,87.07,35,98.64C333.27,160.82,332,175,316.31,203.39ZM51.55,259.28c6.36-1.18,13-3.35,24.32-4.54a0,0,0,0,1,.06,0A1265.66,1265.66,0,0,0,149.16,358.4a.08.08,0,0,1,0,.12,197.94,197.94,0,0,0-29,9.37L128,390.41a2.21,2.21,0,0,0,.41-.14c21.93-9.19,47.18-14.1,72.93-14.21,5.69,0,11.33.3,16.92.78l.4.08c2,.25,3.78.4,5.56.52a185.07,185.07,0,0,1,51.65,13.46,7.06,7.06,0,0,0,.71.29l10.25-21.26a11.3,11.3,0,0,0-2.05-1.13A197.13,197.13,0,0,0,258,359.63s0-.05,0-.08c12.83-30,42-80.14,62-114.56,7.17-12.33,13.37-23,17.28-30.1,8.29-15.07,13.27-27.06,16.18-37.71a107.69,107.69,0,0,0,3.73-29.5c0-19.43-44.37-120.31-57.38-141.25C294.86-1.38,295-1,290.43,1.89a116.61,116.61,0,0,0-32.89,32.64c-16.31,24.78-31.27,63.18-38.9,100.15-8.88,43-12.3,172.44-13,217l-1.32.1C193.1,288,191.72,249.25,190.8,223.31c-.26-7.25-.48-13.51-.86-19.26-1.45-21.5-9.55-31.59-16.05-36.28-27.24-25.16-63.65-26-89.65-17.86C49.41,160.81,16.56,227,12,237.35,7.17,248.12,1.83,262.44.68,266.82c-1.25,4.82-1.25,4.82,4.17,3.83,4.78-.88,21.21-5.35,26.06-6.45"/></g></g></svg>