<?xml version="1.0" standalone="no"?>
<!DOCTYPE svg PUBLIC "-//W3C//DTD SVG 20010904//EN"
 "http://www.w3.org/TR/2001/REC-SVG-20010904/DTD/svg10.dtd">
<svg version="1.0" xmlns="http://www.w3.org/2000/svg"
 width="700.000000pt" height="700.000000pt" viewBox="0 0 700.000000 700.000000"
 preserveAspectRatio="xMidYMid meet">
<metadata>
Created by potrace 1.14, written by Peter Selinger 2001-2017
</metadata>
<g transform="translate(0.000000,700.000000) scale(0.100000,-0.100000)"
fill="#000000" stroke="none">
<path d="M3285 6994 c-22 -2 -89 -9 -150 -14 -651 -64 -1294 -329 -1830 -754
-128 -102 -383 -353 -488 -479 -646 -779 -927 -1780 -777 -2770 69 -451 229
-894 467 -1290 283 -471 713 -899 1191 -1186 695 -418 1511 -580 2319 -461
837 122 1613 557 2162 1210 383 456 649 1015 760 1600 43 227 55 374 55 650 0
335 -24 546 -99 848 -157 637 -480 1193 -966 1667 -550 535 -1244 866 -2014
961 -122 14 -541 27 -630 18z m1343 -1037 c176 -279 616 -1314 697 -1642 25
-98 27 -120 21 -213 -12 -184 -52 -340 -138 -537 -47 -106 -86 -177 -348 -630
-372 -644 -582 -1027 -686 -1253 l-53 -115 142 -47 c79 -26 159 -56 178 -66
l36 -19 -63 -133 -63 -133 -28 14 c-56 29 -276 97 -393 122 -434 91 -896 62
-1308 -83 -77 -28 -115 -37 -117 -29 -3 7 -25 70 -49 140 l-45 128 27 10 c100
39 146 55 229 79 52 14 94 30 94 33 -1 4 -49 71 -108 148 -196 256 -419 570
-605 851 -153 231 -187 277 -207 277 -39 1 -259 -46 -581 -125 -168 -40 -313
-74 -323 -74 -24 0 -22 13 23 145 209 606 652 1219 971 1346 212 83 533 89
764 14 213 -70 434 -233 505 -374 59 -118 69 -184 85 -546 19 -427 40 -694 81
-1015 26 -210 86 -570 95 -570 5 0 9 30 9 68 0 99 18 698 30 992 31 762 70
1272 121 1570 82 482 326 1094 556 1393 102 132 339 337 390 337 15 0 32 -17
61 -63z"/>
<path d="M4447 5593 c-157 -112 -365 -614 -501 -1208 -62 -269 -93 -556 -126
-1160 -19 -345 -50 -1276 -50 -1502 l0 -93 28 0 c26 0 32 8 81 118 101 223
340 667 603 1122 452 779 509 893 552 1104 21 97 20 251 0 330 -74 290 -282
839 -429 1131 -50 99 -97 181 -105 183 -8 1 -32 -10 -53 -25z"/>
<path d="M2245 3920 c-98 -11 -189 -36 -246 -67 -129 -70 -325 -298 -503 -586
-57 -92 -116 -199 -116 -211 0 -2 69 14 153 35 149 38 417 91 527 104 133 15
256 71 401 180 97 72 261 225 339 315 l51 59 -48 35 c-149 109 -357 159 -558
136z"/>
<path d="M2865 3332 c-60 -59 -159 -144 -220 -190 -122 -91 -314 -194 -401
-213 -39 -9 -53 -16 -50 -26 11 -29 331 -497 468 -685 121 -166 335 -447 421
-552 19 -24 28 -28 51 -22 19 5 26 12 22 21 -3 8 -21 117 -40 243 -66 424
-107 865 -122 1307 -3 110 -9 205 -13 212 -4 7 -49 -30 -116 -95z"/>
</g>
</svg>
