<svg xmlns="http://www.w3.org/2000/svg" viewBox="0 0 190 190"><g id="Layer_2" data-name="Layer 2"><g id="Layer_1-2" data-name="Layer 1"><path d="M81.54,96.34s0,0,0,0c.09,1.58.16,3.32.23,5.32a277.56,277.56,0,0,0,4.3,41.51l0,0c-.48,0-1,.12-1.43.18h0a391.09,391.09,0,0,1-23.88-33.13s0,0,0,0C64.34,109.55,71.75,106.82,81.54,96.34Zm-38.73,9.55c-1,.27-1.87.51-2.67.69l-.45.1A90.34,90.34,0,0,1,45.9,96.46c6.31-9,10.17-11,11.53-11.39A26.15,26.15,0,0,1,65,83.92a19.84,19.84,0,0,1,13.13,4.63,0,0,0,0,1,0,0C72.53,95.05,64.69,102,58.92,102.75A107.16,107.16,0,0,0,42.81,105.89ZM130,95c-1.22,2.21-3.2,5.61-5.48,9.55-6.81,11.71-16.85,29-21,39.1h0c-.53-.06-1-.1-1.53-.13l0,0c.19-12.15,1.09-55.65,4-69,4.38-19.93,9.67-29.3,11.35-31.52,1.37-1.81,3-3.19,3.76-3,.35.08,1.41,1.93,3,5.29,4.19,8.59,11.3,28.08,11.3,31.81C135.43,81.25,135,85.81,130,95ZM44.59,113a70.84,70.84,0,0,1,7.84-1.46,0,0,0,0,1,0,0A407.36,407.36,0,0,0,76.06,145s0,0,0,0a63,63,0,0,0-9.35,3l2.53,7.26.14,0a62,62,0,0,1,23.51-4.59c1.84,0,3.66.1,5.46.26l.13,0c.63.08,1.22.13,1.79.17a59.55,59.55,0,0,1,16.65,4.34l.24.09,3.3-6.85a3.86,3.86,0,0,0-.66-.37,63.77,63.77,0,0,0-8.65-2.95s0,0,0,0c4.14-9.67,13.54-25.84,20-36.94,2.31-4,4.31-7.41,5.57-9.7a55.88,55.88,0,0,0,5.22-12.16,34.53,34.53,0,0,0,1.2-9.51c0-6.27-14.3-38.8-18.5-45.55-1.57-2.52-1.54-2.39-3-1.46A37.44,37.44,0,0,0,111,40.53c-5.26,8-10.08,20.37-12.54,32.29-2.87,13.88-4,55.61-4.2,70l-.42,0a271.26,271.26,0,0,1-4.36-41.41c-.08-2.34-.15-4.35-.28-6.21C88.75,88.26,86.13,85,84,83.49c-8.79-8.11-20.52-8.38-28.91-5.76-11.23,3.52-21.82,24.87-23.3,28.2a91.81,91.81,0,0,0-3.64,9.5c-.41,1.56-.41,1.55,1.34,1.23,1.54-.28,6.84-1.72,8.4-2.07"/><path d="M95,190a95,95,0,1,1,95-95A95.11,95.11,0,0,1,95,190ZM95,8a87,87,0,1,0,87,87A87.13,87.13,0,0,0,95,8Z"/></g></g></svg>