<svg xmlns="http://www.w3.org/2000/svg" viewBox="0 0 189.84 189.84"><g id="Layer_2" data-name="Layer 2"><g id="Layer_1-2" data-name="Layer 1"><path d="M57.29,103a112.16,112.16,0,0,0-16.8,3.27c-1,.29-2,.53-2.78.72l-.48.1a95.61,95.61,0,0,1,6.48-10.66c6.59-9.39,10.61-11.43,12-11.87a27.14,27.14,0,0,1,7.93-1.21A20.66,20.66,0,0,1,77.36,88.2s0,0,0,0C71.48,95,63.31,102.24,57.29,103Z"/><path d="M81.17,101.88a287.86,287.86,0,0,0,4.48,43.29s0,0,0,0l-1.49.2h0a408.73,408.73,0,0,1-24.91-34.55,0,0,0,0,1,0,0c3.72-.72,11.45-3.56,21.67-14.5,0,0,0,0,0,0C81,98,81.09,99.8,81.17,101.88Z"/><path d="M125.3,43c4.37,9,11.79,29.28,11.79,33.17,0,4.41-.44,9.17-5.71,18.73-1.27,2.31-3.33,5.86-5.71,10-7.11,12.22-17.57,30.22-21.87,40.78h0c-.54-.06-1.08-.1-1.59-.14h0c.2-12.68,1.13-58,4.2-72C110.93,52.72,116.45,43,118.2,40.63c1.42-1.88,3.15-3.32,3.92-3.15C122.48,37.56,123.59,39.48,125.3,43Z"/><path d="M94.92,0a94.92,94.92,0,1,0,94.92,94.92A94.92,94.92,0,0,0,94.92,0Zm48.92,86.08a57.5,57.5,0,0,1-5.44,12.69c-1.31,2.39-3.4,6-5.81,10.12-6.72,11.57-16.53,28.44-20.84,38.52a0,0,0,0,0,0,0,66.77,66.77,0,0,1,9,3.08,3.82,3.82,0,0,1,.69.38L118,158.05l-.24-.1a62.43,62.43,0,0,0-17.37-4.52c-.6,0-1.21-.09-1.87-.17l-.14,0c-1.88-.16-3.78-.26-5.69-.26a64.77,64.77,0,0,0-24.52,4.77.39.39,0,0,1-.14,0l-2.64-7.57a65.74,65.74,0,0,1,9.75-3.16s0,0,0,0a425,425,0,0,1-24.62-34.86s0,0,0,0a73.6,73.6,0,0,0-8.18,1.53l-7,1.65c-1.62.37-7.15,1.87-8.76,2.16-1.82.34-1.82.34-1.4-1.28a96.26,96.26,0,0,1,3.8-9.91c1.54-3.47,12.59-25.74,24.31-29.41,8.74-2.73,21-2.45,30.14,6,2.18,1.58,4.91,5,5.4,12.2.12,1.94.2,4,.28,6.48a283.25,283.25,0,0,0,4.55,43.18l.44,0c.24-15,1.39-58.48,4.38-73,2.56-12.43,7.59-25.34,13.08-33.68a39.17,39.17,0,0,1,11.06-11c1.52-1,1.49-1.1,3.12,1.52,4.37,7,19.3,41,19.3,47.5A36,36,0,0,1,143.84,86.08Z"/></g></g></svg>