<svg xmlns="http://www.w3.org/2000/svg" viewBox="0 0 1006.35 76.09"><defs><style>.cls-1{fill:#fff;}</style></defs><g id="Layer_2" data-name="Layer 2"><g id="Layer_1-2" data-name="Layer 1"><path class="cls-1" d="M34.51,20.16V72.79H17.2V20.16H2.39L0,3.3H51.71L49.32,20.16Z"/><path class="cls-1" d="M158.68,45.79h-23.8v27H117.56V3.3h17.32V28.93h23.8V3.3H176V72.79H158.68Z"/><path class="cls-1" d="M249.37,3.3h39.87l-2.4,16H266.68V29.62h20.05V45.56H266.68V56.84h20.16l2.4,16H249.37Z"/><path class="cls-1" d="M438.93,3.3h23.58c14.46,0,24.72,7.29,24.72,20.51,0,6.26-2.85,10.48-7.64,13.1,5.59,2.84,9.12,7.63,9.12,14.81,0,13.55-10.37,21.07-24.95,21.07H438.93Zm23.12,27.11c4.44,0,7.29-2.39,7.29-6.15s-2.85-6.15-7.29-6.15h-5.81v12.3ZM463,58c4.79,0,7.86-2.73,7.86-6.95s-3.07-7-7.86-7h-6.72V58Z"/><path class="cls-1" d="M557.75,46.25V3.3h17.31V45.56c0,6.95,4.44,11.17,10.71,11.17s10.82-4.22,10.82-11.17V3.3H613.9v43c0,16.74-11.84,27.68-28.13,27.68S557.75,63,557.75,46.25Z"/><path class="cls-1" d="M703,37.82v35H686.36V0l41.69,38.16V3.3H744.8V76.09Z"/><path class="cls-1" d="M834.8,37.82v35H818.16V0l41.7,38.16V3.3H876.6V76.09Z"/><path class="cls-1" d="M953.27,72.79l11.28-22.9L941.77,3.3h19.36l13.56,28.37L988.24,3.3h18.11L972.3,72.79Z"/></g></g></svg>